<?xml version="1.0" encoding="UTF-8"?><svg id="Layer_2" xmlns="http://www.w3.org/2000/svg" viewBox="0 0 11756.7883 2722.5552"><g id="Components"><g id="_4b59b5b8-d060-41ad-8de0-442ec486c5d1_1"><path d="M4838.0929,2300.6773c-174.1806,0-328.9224-40.0959-464.2663-120.2678-135.384-80.1818-241.4282-190.5146-318.1325-331.0673-76.7444-140.5133-115.0966-302.1707-115.0966-484.9623s38.3522-344.3997,115.0966-484.9525c76.7043-140.5231,182.3442-250.8855,316.8393-331.0673,134.4952-80.1818,288.7926-120.2678,462.9732-120.2678,117.2384,0,227.6063,21.1343,331.0642,63.3633,103.4579,42.2784,195.2766,100.4668,275.4559,174.5849,80.18,74.1576,141.8101,160.3637,184.9304,258.6479l-274.1628,111.2216c-31.0373-65.5162-72.8645-123.7046-125.4421-174.5849-52.6178-50.8408-112.5104-90.0873-179.7579-117.6902-67.247-27.5634-137.9702-41.3797-212.0877-41.3797-113.8035,0-215.1196,28.4523-303.907,85.3469-88.8281,56.9045-158.6619,134.9433-209.5021,234.0768-50.8803,99.173-76.3,213.387-76.3,342.7011s25.4198,244.0218,76.3,344.0047c50.8401,100.0224,121.5628,178.4562,212.0883,235.3607,90.5255,56.9045,193.5384,85.3568,309.08,85.3568,75.855,0,146.9825-15.0804,213.3814-45.2708,66.3581-30.141,125.8464-71.975,178.4642-125.4329,52.5777-53.4282,94.4055-115.5077,125.4427-186.2285l274.1628,111.2216c-43.1209,101.7506-104.3467,191.8379-183.6373,270.2816-79.3313,78.4832-171.595,139.259-276.7497,182.3374-105.1955,43.0882-217.2608,64.6669-336.2373,64.6669Z" style="fill:#124045; stroke-width:0px;"/><path d="M6131.2929,2269.6376V459.132h300.0276v1810.5056h-300.0276Z" style="fill:#124045; stroke-width:0px;"/><path d="M7608.1462,2269.6376l-731.9629-1810.5056h318.1312l708.6856,1810.5056h-294.8539ZM7639.1835,2269.6376l708.6844-1810.5056h320.7187l-731.9629,1810.5056h-297.4401Z" style="fill:#124045; stroke-width:0px;"/><path d="M9113.4505,2269.6376V459.132h300.0276v1810.5056h-300.0276Z" style="fill:#124045; stroke-width:0px;"/><path d="M10854.1205,2300.6773c-179.3536,0-337.9755-39.6514-475.905-118.9741-137.9715-79.293-246.1574-189.6652-324.5987-331.0673-78.482-141.3626-117.6828-303.4644-117.6828-486.2561,0-137.9258,22.3885-263.813,67.247-377.622,44.8177-113.7991,107.7416-212.4883,188.8098-296.1464,81.0287-83.6087,177.1723-148.2757,288.3889-193.981,111.2166-45.6658,233.1843-68.5382,365.9808-68.5382,179.3141,0,337.5311,40.086,474.6125,120.2678,137.0814,80.1818,243.9736,190.5442,320.7187,331.0673,76.7043,140.5528,115.0966,302.2102,115.0966,484.9525s-38.3923,344.8935-115.0966,486.2561c-76.745,141.4021-182.7892,251.7743-318.1325,331.0673-135.384,79.3226-291.864,118.9741-469.4388,118.9741ZM10854.1205,2026.5145c117.2384,0,220.6963-28.4523,310.3725-85.3568,89.6367-56.9045,159.9156-134.8939,210.7958-234.067,50.8395-99.1335,76.2994-213.387,76.2994-342.7109s-25.8648-243.528-77.5931-342.7011c-51.7283-99.1335-122.8565-177.1723-213.382-234.0768-90.5243-56.8946-195.2759-85.3469-314.2525-85.3469-117.2791,0-221.1407,28.4523-311.6663,85.3469-90.5255,56.9045-162.0969,134.9433-214.6745,234.0768-52.6172,99.173-78.8856,213.387-78.8856,342.7011s26.2685,243.5774,78.8856,342.7109c52.5777,99.173,124.9983,177.1624,217.262,234.067,92.2217,56.9045,197.8622,85.3568,316.8387,85.3568ZM11557.6324,2375.6842l-659.5423-667.2997,193.9822-186.2285,654.3698,664.7122-188.8098,188.8159Z" style="fill:#124045; stroke-width:0px;"/><path d="M2057.1685,1361.2754c0-71.8848-13.0315-140.7808-36.84-204.4629l178.7949-103.2271c178.5981,216.4224,493.2818,278.9834,744.1883,134.1226.0006-.0005.0013-.001.0017-.001l-96.5959-167.3091s-.0011.0005-.0017.001c-158.2767,91.3809-354.4312,59.5747-476.7137-65.4707l150.6749-86.9922-97.2673-168.4717-150.6735,86.9912c-47.1473-168.4204,23.3851-354.1948,181.6598-445.5747.0006-.0005.0013-.001.0017-.001l-96.5959-167.3091s-.0011.0005-.0017.001c-250.9045,144.8599-354.0671,448.6606-255.9429,711.541l-179.0365,103.3667c-107.4824-129.8477-269.8264-212.7114-451.1638-212.7114s-343.7194,82.8828-451.2014,212.7563l-179.019-103.3564c98.1589-262.8931-5.0007-566.7261-255.9226-711.5962-.0007-.0005-.0015-.0005-.002-.001l-96.5957,167.3091s.001.0005.0017.001c158.2925,91.3901,228.8228,277.1963,181.6433,445.6323l-150.7727-87.0488-97.2673,168.4717,150.749,87.0352c-122.2854,125.0098-318.4136,156.7983-476.6724,65.4277-.0005-.0005-.0012-.001-.0015-.001L0,1187.707s.0012.0005.002.001c250.8889,144.8506,565.5459,82.3081,744.1506-134.0776l178.8118,103.2368c-23.7954,63.6665-36.8193,132.5439-36.8193,204.4082,0,289.7056,211.4919,530.9355,488.1899,577.4189v206.4438c-276.698,46.4834-488.1899,287.7129-488.1899,577.415v.002h193.1918v-.002c0-182.7422,125.5939-336.6992,294.9982-380.0967v174.0703h194.5347v-174.0977c169.4592,43.3594,295.1069,197.3428,295.1069,380.124v.002h193.1919v-.002c0-289.7402-211.5474-530.9956-488.2988-577.4336v-206.4067c276.7515-46.438,488.2988-287.6938,488.2988-577.4375ZM1079.3368,1361.2754c0-216.3228,175.9929-392.3154,392.3199-392.3154,143.6079,0,269.4404,77.5591,337.8113,192.9883l4.1409,7.1724c32.0585,56.8242,50.3677,122.3906,50.3677,192.1548,0,216.3271-175.9929,392.3198-392.3198,392.3198s-392.3199-175.9927-392.3199-392.3198Z" style="fill:#124045; stroke-width:0px;"/><path d="M1471.6567,585.5098C1794.5109,585.5098,2057.1685,322.8521,2057.1685.002v-.002h-193.1918v.002c0,216.3232-175.9929,392.3159-392.3199,392.3159S1079.3369,216.3252,1079.3369.002v-.002h-193.1919v.002c0,322.8501,262.6577,585.5078,585.5117,585.5078Z" style="fill:#124045; stroke-width:0px;"/><path d="M2143.4912,1749.1616c-161.427,279.5996-65.2876,638.3965,214.3088,799.8213.0006.001.0013.001.0017.001l96.5959-167.3086s-.0011-.001-.0017-.001c-187.3412-108.1611-251.7591-348.5723-143.5956-535.917,108.1635-187.3447,348.5742-251.7627,535.9155-143.6011.0006.0005.0013.001.0017.001l96.5959-167.3091s-.0011-.0005-.0017-.001c-279.5964-161.4248-638.3935-65.2856-799.8205,214.3145Z" style="fill:#124045; stroke-width:0px;"/><path d="M.002,1534.8472c-.0007.0005-.0015.001-.002.001l96.5962,167.3091s.001-.0005.0015-.001c187.3413-108.1616,427.7522-43.7437,535.9155,143.6011,108.1636,187.3447,43.7456,427.7559-143.5955,535.917-.0007,0-.0012.001-.0017.001l96.5957,167.3086s.0012,0,.002-.001c279.5962-161.4248,375.7358-520.2217,214.3086-799.8213C638.3953,1469.5615,279.5981,1373.4224.002,1534.8472Z" style="fill:#124045; stroke-width:0px;"/></g></g></svg>